<mxfile host="app.diagrams.net" agent="Mozilla/5.0 (Windows NT 10.0; Win64; x64) AppleWebKit/537.36 (KHTML, like Gecko) Chrome/134.0.0.0 Safari/537.36" version="26.1.1">
  <diagram id="yPxyJZ8AM_hMuL3Unpa9" name="complex gitflow">
    <mxGraphModel dx="1434" dy="772" grid="1" gridSize="10" guides="1" tooltips="1" connect="1" arrows="1" fold="1" page="1" pageScale="1" pageWidth="1100" pageHeight="850" math="0" shadow="0">
      <root>
        <mxCell id="0" />
        <mxCell id="1" parent="0" />
        <mxCell id="66I-rzhN5gqvh0xOh-AW-2" value="Clone" style="shape=step;perimeter=stepPerimeter;whiteSpace=wrap;html=1;fixedSize=1;fillColor=#FFCC99;shadow=1;strokeColor=#994C00;" vertex="1" parent="1">
          <mxGeometry x="145" y="362" width="100" height="50" as="geometry" />
        </mxCell>
        <mxCell id="66I-rzhN5gqvh0xOh-AW-5" value="" style="endArrow=classic;html=1;rounded=0;fillColor=#006666;strokeColor=#006666;" edge="1" parent="1">
          <mxGeometry width="50" height="50" relative="1" as="geometry">
            <mxPoint x="252" y="387" as="sourcePoint" />
            <mxPoint x="292" y="387" as="targetPoint" />
          </mxGeometry>
        </mxCell>
        <mxCell id="66I-rzhN5gqvh0xOh-AW-12" value="Build" style="shape=step;perimeter=stepPerimeter;whiteSpace=wrap;html=1;fixedSize=1;fillColor=#FFCC99;shadow=1;strokeColor=#994C00;" vertex="1" parent="1">
          <mxGeometry x="282" y="362" width="100" height="50" as="geometry" />
        </mxCell>
        <mxCell id="66I-rzhN5gqvh0xOh-AW-13" value="" style="endArrow=classic;html=1;rounded=0;fillColor=#006666;strokeColor=#006666;" edge="1" parent="1">
          <mxGeometry width="50" height="50" relative="1" as="geometry">
            <mxPoint x="391" y="386.5" as="sourcePoint" />
            <mxPoint x="421" y="387" as="targetPoint" />
          </mxGeometry>
        </mxCell>
        <mxCell id="66I-rzhN5gqvh0xOh-AW-14" value="Upload-file" style="shape=step;perimeter=stepPerimeter;whiteSpace=wrap;html=1;fixedSize=1;fillColor=#FFCC99;shadow=1;strokeColor=#994C00;" vertex="1" parent="1">
          <mxGeometry x="418" y="362" width="114" height="50" as="geometry" />
        </mxCell>
        <mxCell id="66I-rzhN5gqvh0xOh-AW-15" value="" style="endArrow=classic;html=1;rounded=0;fillColor=#006666;strokeColor=#006666;" edge="1" parent="1">
          <mxGeometry width="50" height="50" relative="1" as="geometry">
            <mxPoint x="537" y="386.5" as="sourcePoint" />
            <mxPoint x="571" y="387" as="targetPoint" />
          </mxGeometry>
        </mxCell>
        <mxCell id="66I-rzhN5gqvh0xOh-AW-16" value="Notify" style="shape=step;perimeter=stepPerimeter;whiteSpace=wrap;html=1;fixedSize=1;fillColor=#FFCC99;shadow=1;strokeColor=#994C00;" vertex="1" parent="1">
          <mxGeometry x="570" y="362" width="100" height="50" as="geometry" />
        </mxCell>
        <mxCell id="66I-rzhN5gqvh0xOh-AW-21" value="" style="shape=curlyBracket;whiteSpace=wrap;html=1;rounded=1;labelPosition=left;verticalLabelPosition=middle;align=right;verticalAlign=middle;rotation=90;strokeWidth=4;fillColor=#1ba1e2;strokeColor=#006EAF;fontColor=#ffffff;" vertex="1" parent="1">
          <mxGeometry x="402.75" y="-24.5" width="45.87" height="616.9" as="geometry" />
        </mxCell>
        <mxCell id="66I-rzhN5gqvh0xOh-AW-23" value="" style="shape=curlyBracket;whiteSpace=wrap;html=1;rounded=1;labelPosition=left;verticalLabelPosition=middle;align=right;verticalAlign=middle;rotation=270;strokeWidth=4;fillColor=#1ba1e2;strokeColor=#006EAF;fontColor=#ffffff;" vertex="1" parent="1">
          <mxGeometry x="388.18" y="189.53" width="64" height="626.98" as="geometry" />
        </mxCell>
        <mxCell id="66I-rzhN5gqvh0xOh-AW-25" value="" style="sketch=0;outlineConnect=0;fontColor=#232F3E;gradientColor=none;fillColor=#232F3D;strokeColor=none;dashed=0;verticalLabelPosition=bottom;verticalAlign=top;align=center;html=1;fontSize=12;fontStyle=0;aspect=fixed;pointerEvents=1;shape=mxgraph.aws4.source_code;" vertex="1" parent="1">
          <mxGeometry x="180" y="109" width="21.92" height="30" as="geometry" />
        </mxCell>
        <mxCell id="66I-rzhN5gqvh0xOh-AW-24" value="" style="verticalLabelPosition=bottom;html=1;verticalAlign=top;align=center;strokeColor=none;fillColor=#00BEF2;shape=mxgraph.azure.user;" vertex="1" parent="1">
          <mxGeometry x="140" y="100" width="47.5" height="50" as="geometry" />
        </mxCell>
        <mxCell id="66I-rzhN5gqvh0xOh-AW-26" value="" style="endArrow=classic;html=1;rounded=0;edgeStyle=entityRelationEdgeStyle;" edge="1" parent="1">
          <mxGeometry width="50" height="50" relative="1" as="geometry">
            <mxPoint x="220" y="130" as="sourcePoint" />
            <mxPoint x="380" y="90" as="targetPoint" />
            <Array as="points">
              <mxPoint x="390" y="90" />
            </Array>
          </mxGeometry>
        </mxCell>
        <mxCell id="66I-rzhN5gqvh0xOh-AW-27" value="&lt;font style=&quot;font-size: 16px;&quot;&gt;push&lt;/font&gt;" style="rounded=1;whiteSpace=wrap;html=1;shadow=1;fillColor=none;strokeColor=none;" vertex="1" parent="1">
          <mxGeometry x="230" y="60" width="120" height="60" as="geometry" />
        </mxCell>
        <mxCell id="66I-rzhN5gqvh0xOh-AW-28" value="&lt;font style=&quot;font-size: 16px;&quot;&gt;tag&lt;/font&gt;" style="rounded=1;whiteSpace=wrap;html=1;shadow=1;fillColor=none;strokeColor=none;" vertex="1" parent="1">
          <mxGeometry x="253" y="100" width="120" height="60" as="geometry" />
        </mxCell>
        <mxCell id="66I-rzhN5gqvh0xOh-AW-29" value="" style="outlineConnect=0;dashed=0;verticalLabelPosition=bottom;verticalAlign=top;align=center;html=1;shape=mxgraph.aws3.bucket_with_objects;fillColor=#E05243;gradientColor=none;" vertex="1" parent="1">
          <mxGeometry x="385.12" y="88.5" width="60" height="61.5" as="geometry" />
        </mxCell>
        <mxCell id="66I-rzhN5gqvh0xOh-AW-30" value="&lt;font face=&quot;Georgia&quot; style=&quot;font-size: 18px;&quot;&gt;Gitea&lt;/font&gt;" style="rounded=1;whiteSpace=wrap;html=1;shadow=1;fillColor=none;strokeColor=none;" vertex="1" parent="1">
          <mxGeometry x="355.12" y="40" width="120" height="60" as="geometry" />
        </mxCell>
        <mxCell id="66I-rzhN5gqvh0xOh-AW-31" value="" style="endArrow=classic;html=1;rounded=0;" edge="1" parent="1">
          <mxGeometry width="50" height="50" relative="1" as="geometry">
            <mxPoint x="413.69" y="153" as="sourcePoint" />
            <mxPoint x="414" y="193" as="targetPoint" />
          </mxGeometry>
        </mxCell>
        <mxCell id="66I-rzhN5gqvh0xOh-AW-33" value="" style="shape=image;verticalLabelPosition=bottom;labelBackgroundColor=default;verticalAlign=top;aspect=fixed;imageAspect=0;image=data:image/png,iVBORw0KGgoAAAANSUhEUgAAALEAAAA8CAIAAACmZcyUAAAIx0lEQVR4Ae2bQUsbWxTHE03NV5hvEDAfoLh4K8Ess3hC6UZRKBIQrCC6eLw+KGIohYqLIgExm9IsggSKRB4ituAiQsAsxCwkFSSUiEiICBnIYh6ZO/fcM2fujHE6Sa3vFrGTmblz7/mf3z333DMxFNXi6kcpgBUI4Q/qWCkQ1eKKCRUmqQKKCaqIChWKCcUEVUAxQRVRcUIxoZigCigmqCIqTigmFBNUAcUEVUTFCcWEYoIqoJigiqg4oZhQTFAFFBNUERUnFBOKCarAgJgYGR2PzKSHl7aH1oqhfD2Ur4cz5XCmPLRWjMykn/3xUs3Ox6NA35kYGR0PZ8qMA4/f4Uw5MpN+PLr8n0cyCCYiM2kPGvAlRcZjYLFfTESSi2AeWziw772PVcAA6X7JQV+YYEnD8NI2mPRQLMKZ8sjoODRXB4NUIHgmIIsM5etuWEB2ibNOEjzCmfIghVB9gQIBMzG8tE1c68RCujSMjI5jmNhDcFsYsTrotwJBMvHsj5cEiIe61pmN4ryk31qo5zMFgmTCY88pnfEjo+POykQkuYjB8r+CJFLT88u2n1ezMfc/XIj9uWC7eX55emryfkoSqem1z7n8bi7/+Z/51HPp89FIkglaIIpqE4lXbJwLiTF+FTUho5I9gbfCvY/Nvpjf2OwObDe3tTGNbBeWopPY0sCYIL7EfmXHOGfEESWcKQ8vbeOrZBHxGSpyNUP6r6M3LyuFD8uEj5WjW+ntRuv6JL/qdHYslT281GmTjn5xlJ0G1zInoZG0z3eS2HPd4/eHLfaY28M33LuoCemimuP30Ofw81MbharMlpvSgtlEWNoqrcgeEhgTxJGECRwnnAsEK2sCFiOj47i5z1DhLitTuX35bQU5TyhFnGB+bB69xwwlt86astusc1cl/OSobSR69dMsnpTBMpH8WGl0XEbGCRCW8jP28QT09x3Ei9ij7BjmOo4Q5DbMDbnkXGKIGZKPwhN6o1qrmj8XNza98KwVSt3V9ljIPThriEBQz72wJmLsbQkBoTeqpUJ+N3dQubCme7cL/GQ7E4ah17L8UeawveOEGDwzofCOxwPHFLcPzGhf1UoH5tpxUKn+0A1OgLCUnyHqBRMnpFMf+xVigMcSg+MBiTrSrQqxhH4UTNSySL7nf+1fCE8bJ1sTrKFUqdjHszan6CTDnPH33hU/pdcLK1Zz8yGp9QoEbf0kwy+JkVgN26dZFHW8mbANntqI7ELxxjCM29LHFLk5lphknUotxTcHw4RzC4qBCOXr0KX3nQIdezl8aK0IT+j1QHjCIevrbw3uVuN8x0upNyIkWEy8qwAl1RxZBeLRsewJAMefLOJE65oHHkTMPfmEY/A2DkTMiG2dgU0XeQoEFm1ATJBpTYAI5esQ/L0jCjBB0AmYCW1i85QLeFdJmypLlUp+qfP7rLVj4SuPBJ2zdZl70mUOBX8yYqK0nqtZSN1V0lY2E0ycWAeLXFYEwEJqKVwN7O9FPXahjA9gwiOfwOGEQIaXFTx6r2OPOKHFE8LZ1kQUSvF8onBch5DQ/Pqe9ZU955Bc7idkTMTygBGf4jCSrrdS2XMLmnY5Y4YobyZ4d9b//Jm069VDSJVOs16yaHFhqQs9wawdzsBAzkBCIK1XEm6iWtwJmbedkqvgCUOmo+OqUIp4oXNbza/C8i+YON+RdKrFRVSAfqEv5oOp3Qtra3B7+HYC5QG97EVltnT5ALCM5pGFr3x4A2PC6ULCBJ7o0m9UADRRLS7NQ90sdD0PngDfoLkllgB+1Y2JxtcNXJwQTFx9m0YPhGHcFye6GUASYkmrtDIG7pQz0b7T0c/ZpqxTzITxSOIECfUECPYRbzW7r0mTi8NL28NL25GZNKQRTFlnzhF0PjFbuOTRgLtWMNGqrM8vL2xVYMOJixPits7ZJipvABMin4DIDHTCGS2V+24NoHm061mzcgsMIrs0u0YWiV7IPdZHYYLLncGsHb0wEcrXoUoBCkoPnC/WMU/SJpKT4AkeCeCeWEbsMBvFZXbeqRRKMFmQNzXNoPT+iyO9f7FT5SWj9vGG1SOMBPtgav/CokJvw1IiqWP2yER87uCaY65Xc46BoejitBSUYQfBMOGc2dJQ4f01KhwtCBY9wmSzDTxhY2JyDgUAQyT/0swLlSJuoDQJob5bBjh8h96JjK0WvvNNh3G995pPUxgJZkKLI+aYN6VrR69MRAVkZn0iQ4r3k3NvV1lSPCAm7q1jYkTYC45IcpFtRtibMLb5xPEAY4FxsTke4U/PgycMXgq8vOUz0vRB59pM8TwjKqpPwNaDlgt/mEXS8+smjxCG0U30IC0VWaediaiWEktYd0RSJvjgeSm2WuThx2H7CuyTGWOta1b6rLKx8d4HxERUi/e4fGA4pMdOLPwkE7b8nylk/92q5WwlSGmciEe1CZEfoKnv/b6jcZy1vegCOrlXBL64eiZnwj5swzDc9jtdRFLrx7CCOBry3gfHhHSzIPX6vScJFn6ChBsTHb35o3b4SfKe01UpXJq83Adnm+9Fef0K9L+p7dGgjXan3CuCCS0+9y94URon4NH8wIuJLsTTH/arN7CE8VYdvXm6wzZKrpbywBNMPhHV4h6Fh3shcN6AscAKPrrj7tcUrG9p9PrNBi59f21BA+vpiyBoVIEx4VZXcPq7xzO/DRZIzf66eVAdBclEFwv7u6se3e92Gy5kPQ25fwsrAmYiwBXEZ2o5qMn0W3jX3yADZoIlFveWut0CA5xXQPhzZyCtgmeCYfEzi4haMgJxre+H9IUJNppIcvGhASOcKcNbdd8mqYY/qUAfmYCA0Us5y7vs/ZNGquYPUqC/TMBQWKF6aK04tFZkwYP9eaD0vSi0Uge/RIEBMfFLbFOd+lNAMcHfXqpNLFdAMaGYoAooJqgi/uLtU2qlmFBMUAUUE1SRpzTj/dmimFBMUAUUE1QRf3PrKbVSTCgmqAKKCarIU5rx/mxRTCgmqAKKCaqIv7n1lFr9Bxo0yAb8gBjPAAAAAElFTkSuQmCC;" vertex="1" parent="1">
          <mxGeometry x="326.62" y="200" width="177" height="60" as="geometry" />
        </mxCell>
        <mxCell id="66I-rzhN5gqvh0xOh-AW-34" value="&lt;font face=&quot;Georgia&quot; style=&quot;font-size: 18px;&quot;&gt;Drone CI Server&lt;/font&gt;" style="rounded=1;whiteSpace=wrap;html=1;shadow=1;fillColor=none;strokeColor=none;" vertex="1" parent="1">
          <mxGeometry x="160" y="230" width="190" height="60" as="geometry" />
        </mxCell>
        <mxCell id="66I-rzhN5gqvh0xOh-AW-37" value="" style="endArrow=classic;html=1;rounded=0;strokeWidth=2;" edge="1" parent="1">
          <mxGeometry width="50" height="50" relative="1" as="geometry">
            <mxPoint x="490" y="360" as="sourcePoint" />
            <mxPoint x="620" y="200" as="targetPoint" />
          </mxGeometry>
        </mxCell>
        <mxCell id="66I-rzhN5gqvh0xOh-AW-38" value="Bucket" style="sketch=0;outlineConnect=0;fontColor=#232F3E;gradientColor=none;strokeColor=#232F3E;fillColor=#ffffff;dashed=0;verticalLabelPosition=bottom;verticalAlign=top;align=center;html=1;fontSize=12;fontStyle=0;aspect=fixed;shape=mxgraph.aws4.resourceIcon;resIcon=mxgraph.aws4.bucket;" vertex="1" parent="1">
          <mxGeometry x="610" y="120" width="60" height="60" as="geometry" />
        </mxCell>
        <mxCell id="66I-rzhN5gqvh0xOh-AW-40" value="&lt;font style=&quot;font-size: 16px;&quot;&gt;minio文件服务&lt;/font&gt;" style="rounded=1;whiteSpace=wrap;html=1;shadow=1;fillColor=none;strokeColor=none;" vertex="1" parent="1">
          <mxGeometry x="670" y="139" width="120" height="60" as="geometry" />
        </mxCell>
        <mxCell id="66I-rzhN5gqvh0xOh-AW-41" value="" style="endArrow=classic;html=1;rounded=0;exitX=0.5;exitY=1;exitDx=0;exitDy=0;fillColor=#008a00;strokeColor=light-dark(#151f28, #a1cdf9);strokeWidth=2;edgeStyle=elbowEdgeStyle;elbow=vertical;" edge="1" parent="1">
          <mxGeometry width="50" height="50" relative="1" as="geometry">
            <mxPoint x="620" y="413" as="sourcePoint" />
            <mxPoint x="560" y="641" as="targetPoint" />
          </mxGeometry>
        </mxCell>
      </root>
    </mxGraphModel>
  </diagram>
</mxfile>
